HIERARCHY
ROOT root
{
	OFFSET 0.000000 0.000000 0.000000
	CHANNELS 6 Xposition Yposition Zposition Zrotation Yrotation Xrotation
	JOINT lhip
	{
		OFFSET 0.058581 -0.082280 -0.017664
		CHANNELS 3 Zrotation Yrotation Xrotation
		JOINT lknee
		{
			OFFSET 0.043451 -0.386469 0.008037
			CHANNELS 3 Zrotation Yrotation Xrotation
			JOINT lankle
			{
				OFFSET -0.014790 -0.426874 -0.037428
				CHANNELS 3 Zrotation Yrotation Xrotation
				JOINT ltoe
				{
					OFFSET 0.041054 -0.060286 0.122042
					CHANNELS 3 Zrotation Yrotation Xrotation
					End Site
					{
						OFFSET 0.000000 0.000000 0.000000
					}
				}
			}
		}
	}
	JOINT rhip
	{
		OFFSET -0.060310 -0.090513 -0.013543
		CHANNELS 3 Zrotation Yrotation Xrotation
		JOINT rknee
		{
			OFFSET -0.043257 -0.383688 -0.004843
			CHANNELS 3 Zrotation Yrotation Xrotation
			JOINT rankle
			{
				OFFSET 0.019056 -0.420046 -0.034562
				CHANNELS 3 Zrotation Yrotation Xrotation
				JOINT rtoe
				{
					OFFSET -0.034840 -0.062106 0.130323
					CHANNELS 3 Zrotation Yrotation Xrotation
					End Site
					{
						OFFSET 0.000000 0.000000 0.000000
					}
				}
			}
		}
	}
	JOINT lowerback
	{
		OFFSET 0.004439 0.124404 -0.038385
		CHANNELS 3 Zrotation Yrotation Xrotation
		JOINT upperback
		{
			OFFSET 0.004488 0.137956 0.026820
			CHANNELS 3 Zrotation Yrotation Xrotation
			JOINT chest
			{
				OFFSET -0.002265 0.056032 0.002855
				CHANNELS 3 Zrotation Yrotation Xrotation
				JOINT lowerneck
				{
					OFFSET -0.013390 0.211636 -0.033468
					CHANNELS 3 Zrotation Yrotation Xrotation
					JOINT upperneck
					{
						OFFSET 0.010113 0.088937 0.050410
						CHANNELS 3 Zrotation Yrotation Xrotation
						End Site
						{
							OFFSET 0.000000 0.000000 0.000000
						}
					}
				}
				JOINT lclavicle
				{
					OFFSET 0.071702 0.114000 -0.018898
					CHANNELS 3 Zrotation Yrotation Xrotation
					JOINT lshoulder
					{
						OFFSET 0.122921 0.045205 -0.019046
						CHANNELS 3 Zrotation Yrotation Xrotation
						JOINT lelbow
						{
							OFFSET 0.255332 -0.015649 -0.022946
							CHANNELS 3 Zrotation Yrotation Xrotation
							JOINT lwrist
							{
								OFFSET 0.265709 0.012698 -0.007375
								CHANNELS 3 Zrotation Yrotation Xrotation
								End Site
								{
									OFFSET 0.000000 0.000000 0.000000
								}
							}
						}
					}
				}
				JOINT rclavicle
				{
					OFFSET -0.082954 0.112472 -0.023707
					CHANNELS 3 Zrotation Yrotation Xrotation
					JOINT rshoulder
					{
						OFFSET -0.113228 0.046853 -0.008472
						CHANNELS 3 Zrotation Yrotation Xrotation
						JOINT relbow
						{
							OFFSET -0.260127 -0.014369 -0.031269
							CHANNELS 3 Zrotation Yrotation Xrotation
							JOINT rwrist
							{
								OFFSET -0.269108 0.006794 -0.006027
								CHANNELS 3 Zrotation Yrotation Xrotation
								End Site
								{
									OFFSET 0.000000 0.000000 0.000000
								}
							}
						}
					}
				}
			}
		}
	}
}
MOTION
Frames: 11
Frame Time: 0.033333
0.273374 0.240623 0.988909 85.830157 0.633281 85.617532 6.088709 5.581679 8.253255 -1.248252 -3.060358 0.937565 1.477777 8.193519 -10.359088 0.000000 -0.000000 0.000000 -3.288613 -1.274594 5.062973 -2.074490 5.906922 5.966556 2.862112 -3.818125 -10.575466 0.000000 -0.000000 0.000000 1.616210 2.834702 3.708546 -0.777575 -0.181559 2.836952 -2.575791 0.682130 0.971982 7.427840 -10.061290 -3.698521 -1.886457 -8.175377 11.864877 -26.196416 0.649867 -3.195121 -53.183072 2.138605 3.644275 7.014560 -25.591572 11.110045 14.160920 -3.766224 -0.600715 12.216689 9.728513 -9.361350 42.282785 33.942494 14.176161 -160.091110 53.311652 -133.098994 -13.916031 7.853388 -14.277169 
0.273410 0.240686 0.988981 86.001592 0.615481 85.671434 6.067066 5.663993 8.161386 -1.236407 -3.217767 0.950482 1.389317 8.094222 -10.366883 0.000000 -0.000000 0.000000 -3.307295 -1.412584 5.068666 -2.096730 5.905679 5.907026 2.943670 -3.828110 -10.562363 0.000000 -0.000000 0.000000 1.665003 2.837122 3.744504 -0.906067 -0.194850 2.669066 -2.635374 0.720288 1.144950 7.702978 -10.155802 -4.299280 -1.958880 -8.244406 10.907811 -26.117526 0.764697 -3.387285 -53.083391 2.015282 3.572208 6.891404 -25.466096 11.505050 14.591315 -3.762185 -0.896426 11.824174 9.600132 -10.126874 41.172008 35.513546 13.242200 -159.621732 53.127695 -132.458670 -15.524085 8.226404 -13.387372 
0.273339 0.240672 0.988879 86.138871 0.604909 85.760846 6.058358 5.641203 8.036908 -1.234191 -3.186033 0.915939 1.397583 7.959748 -10.256935 0.000000 -0.000000 0.000000 -3.284391 -1.475499 4.960170 -2.132685 5.986350 5.938597 2.918793 -3.949882 -10.567168 0.000000 -0.000000 0.000000 1.718928 2.859747 3.636376 -0.993453 -0.182244 2.757432 -2.699011 0.743193 0.954183 7.658119 -10.350569 -4.874238 -1.852448 -8.251293 10.554557 -26.025521 0.514313 -3.327359 -53.088841 2.206734 3.321360 7.019529 -25.387275 11.288267 13.663676 -3.503875 -0.923987 11.417727 10.259568 -9.993657 39.401432 36.380636 11.736131 -158.329096 52.768113 -131.118354 -14.507511 8.310698 -12.129585 
0.273421 0.240633 0.988811 86.268016 0.584934 85.785664 6.042813 5.639773 8.002271 -1.258597 -3.284667 0.873388 1.363452 7.898790 -10.241285 0.000000 -0.000000 0.000000 -3.293824 -1.607204 4.915032 -2.149291 6.045486 5.958468 2.934649 -4.032363 -10.606247 0.000000 -0.000000 0.000000 1.793035 2.888355 3.627580 -1.151376 -0.137164 2.678436 -2.724999 0.825868 0.984090 7.687352 -10.412301 -5.542128 -1.781184 -8.030080 9.918677 -25.960097 0.273998 -3.399260 -53.028998 2.142557 3.182575 6.960518 -24.901207 11.288533 13.847032 -3.881261 -1.018916 11.014858 10.606870 -10.205613 37.531797 37.236434 10.220715 -157.148495 52.765108 -129.871175 -14.723726 9.057896 -10.634022 
0.273522 0.240686 0.988859 86.381255 0.611027 85.781584 6.054871 5.599738 8.019428 -1.229335 -3.319262 0.816312 1.337676 7.882097 -10.230751 0.000000 -0.000000 0.000000 -3.244033 -1.680259 4.945556 -2.183219 6.141718 5.899683 2.983213 -4.197393 -10.591344 0.000000 -0.000000 0.000000 1.928392 2.837245 3.624235 -1.334447 -0.058711 2.634144 -2.765455 0.928306 0.895197 7.671349 -10.668848 -5.919114 -1.613726 -7.869122 9.247275 -25.903011 0.133734 -3.390235 -52.962224 2.181522 3.055641 6.899290 -24.701345 11.266679 13.982710 -4.159935 -0.712223 10.277982 10.973932 -10.493843 36.021122 37.604090 9.122802 -155.905205 52.689216 -128.845152 -15.930863 9.444953 -9.250923 
0.273630 0.240658 0.988868 86.429604 0.596942 85.701900 6.068328 5.569618 8.115015 -1.243322 -3.270516 0.825263 1.185974 7.794879 -10.277968 0.000000 -0.000000 0.000000 -3.247585 -1.728808 5.071306 -2.218381 6.153689 5.857589 2.997252 -4.166728 -10.619147 0.000000 -0.000000 0.000000 1.941862 2.943061 3.690902 -1.468261 -0.018468 2.743707 -2.734004 1.001787 0.744431 7.793091 -10.678195 -6.740970 -1.635824 -7.857862 8.957361 -25.926784 -0.080294 -3.370367 -52.942274 2.534996 2.882296 7.148730 -25.094367 10.559486 13.947548 -4.611188 0.032803 9.963997 11.379668 -10.629102 33.664236 38.248478 7.212780 -154.416441 52.821466 -127.621799 -16.260160 9.805899 -7.907410 
0.274004 0.240790 0.989038 86.477362 0.608391 85.746675 6.062385 5.568967 8.096987 -1.214770 -3.296440 0.794876 1.229766 7.814008 -10.262767 0.000000 -0.000000 0.000000 -3.239874 -1.773835 5.076106 -2.200846 6.282765 5.814578 3.010771 -4.289079 -10.615827 0.000000 -0.000000 0.000000 2.061495 2.940989 3.621536 -1.645243 0.047880 2.704285 -2.785392 1.083514 0.613965 7.895658 -10.702787 -7.295721 -1.639579 -7.656201 8.772753 -25.860453 -0.335427 -3.204977 -52.882517 2.707973 2.583098 7.407409 -25.175523 10.311980 14.480124 -4.860559 1.135735 9.518411 11.832086 -10.629571 31.241664 38.819250 5.134694 -152.789619 52.911035 -126.025526 -17.525763 10.657278 -6.336564 
0.274428 0.240941 0.989042 86.428519 0.651245 85.774276 6.144010 5.649610 8.063673 -1.236269 -3.311017 0.857352 1.209365 7.779520 -10.289803 0.000000 -0.000000 0.000000 -3.186751 -1.874160 5.041560 -2.211194 6.465025 5.864828 2.993748 -4.388653 -10.663958 0.000000 -0.000000 0.000000 2.295036 2.920526 3.611067 -1.857978 0.178727 2.654008 -2.883859 1.221849 0.498318 7.887052 -11.029864 -7.779861 -1.487823 -7.545116 8.012972 -25.817488 -0.524950 -3.178898 -52.758637 2.912696 2.364593 7.410831 -25.217071 10.562219 14.229901 -4.941624 1.178921 8.706054 12.231653 -10.884207 28.968822 39.186817 3.120433 -151.241119 52.949339 -124.190495 -18.069787 11.659544 -4.350551 
0.274943 0.241194 0.988961 86.467611 0.686198 85.811621 6.199072 5.609641 8.067340 -1.239430 -3.289911 0.848235 1.184634 7.753858 -10.296292 0.000000 -0.000000 0.000000 -3.170783 -1.998044 5.087966 -2.227037 6.541576 5.790466 3.072872 -4.431133 -10.642344 0.000000 -0.000000 0.000000 2.535867 2.884638 3.583753 -2.077141 0.258008 2.572818 -2.987893 1.295983 0.417534 7.936415 -11.429720 -8.222174 -1.433596 -7.388787 7.279770 -25.721332 -0.599503 -3.158050 -52.756339 2.993962 2.160522 7.515726 -25.212987 10.853765 13.704221 -5.644467 0.979403 7.841108 12.568638 -11.184865 26.500074 39.751660 0.963073 -149.191575 53.149974 -121.964711 -18.741596 12.790136 -1.993988 
0.275323 0.241349 0.989057 86.517847 0.694965 85.858676 6.194339 5.489386 8.015652 -1.239972 -3.255023 0.883746 1.172312 7.826854 -10.311123 0.000000 -0.000000 0.000000 -3.161525 -2.084976 5.119150 -2.227361 6.714771 5.676572 3.110755 -4.647738 -10.583946 0.000000 -0.000000 0.000000 2.798404 2.836278 3.535098 -2.307767 0.309355 2.491279 -3.111266 1.364470 0.384303 8.022502 -11.891140 -8.830813 -1.381882 -7.223766 6.264011 -25.677718 -0.773107 -3.169306 -52.683479 3.099054 2.035330 7.481471 -25.034700 10.947926 13.719989 -5.297848 0.221619 7.069519 13.041359 -11.440137 23.702922 40.375957 -1.417052 -146.852084 53.433729 -119.419865 -19.630707 13.604095 0.113266 
0.275676 0.241544 0.989125 86.527972 0.708315 85.898812 6.239443 5.550833 8.017837 -1.250408 -3.298848 0.846784 1.100700 7.788157 -10.312964 0.000000 -0.000000 0.000000 -3.128691 -2.171008 5.094985 -2.248996 6.866617 5.670032 3.105147 -4.699749 -10.607752 0.000000 -0.000000 0.000000 3.044470 2.796342 3.569664 -2.567529 0.420568 2.402963 -3.238307 1.389709 0.234103 8.101034 -12.190590 -9.320709 -1.217548 -6.960659 5.382613 -25.583537 -0.943478 -3.096188 -52.540247 3.182125 1.790880 7.349723 -24.807736 11.175823 13.604664 -5.490954 0.185526 6.198286 13.528117 -11.716154 21.111155 40.771549 -3.791569 -144.480363 53.598675 -117.047774 -20.098380 14.760677 2.263632 
